<svg xmlns="http://www.w3.org/2000/svg" width="1920" height="1080"><path d="M-196,-248L-28,-249L196,-257Z" fill="#900d26" stroke="#900d26" stroke-width="1.51"/><path d="M1258,1326L542,1318L1390,1338Z" fill="#818181" stroke="#818181" stroke-width="1.51"/><path d="M542,1318L-177,1334L1390,1338Z" fill="#856a5d" stroke="#856a5d" stroke-width="1.51"/><path d="M1027,-253L1346,-205L1567,-228Z" fill="#ac7172" stroke="#ac7172" stroke-width="1.51"/><path d="M1567,-228L1739,-218L1893,-251Z" fill="#814b4d" stroke="#814b4d" stroke-width="1.51"/><path d="M196,-257L496,-256L1939,-258Z" fill="#bb7e7e" stroke="#bb7e7e" stroke-width="1.51"/><path d="M496,-256L1027,-253L1939,-258Z" fill="#b0797b" stroke="#b0797b" stroke-width="1.51"/><path d="M1567,-228L1893,-251L1939,-258Z" fill="#754245" stroke="#754245" stroke-width="1.51"/><path d="M1027,-253L1567,-228L1939,-258Z" fill="#966062" stroke="#966062" stroke-width="1.51"/><path d="M2009,302L2052,474L2106,288Z" fill="#917e74" stroke="#917e74" stroke-width="1.51"/><path d="M1867,1277L1754,1310L2121,1233Z" fill="#414141" stroke="#414141" stroke-width="1.51"/><path d="M2007,1227L1867,1277L2121,1233Z" fill="#3c3c3c" stroke="#3c3c3c" stroke-width="1.51"/><path d="M2005,727L2072,924L2128,732Z" fill="#787878" stroke="#787878" stroke-width="1.51"/><path d="M2072,924L2101,963L2128,732Z" fill="#6c6c6c" stroke="#6c6c6c" stroke-width="1.51"/><path d="M2106,288L2052,474L2128,732Z" fill="#8d8986" stroke="#8d8986" stroke-width="1.51"/><path d="M2052,474L2055,602L2128,732Z" fill="#898989" stroke="#898989" stroke-width="1.51"/><path d="M2101,963L2001,983L2149,1130Z" fill="#575757" stroke="#575757" stroke-width="1.51"/><path d="M2128,732L2101,963L2149,1130Z" fill="#5f5f5f" stroke="#5f5f5f" stroke-width="1.51"/><path d="M1991,109L2123,196L2162,118Z" fill="#845749" stroke="#845749" stroke-width="1.51"/><path d="M2061,-83L1991,109L2162,118Z" fill="#80483e" stroke="#80483e" stroke-width="1.51"/><path d="M2106,288L2128,732L2162,118Z" fill="#87786f" stroke="#87786f" stroke-width="1.51"/><path d="M2123,196L2106,288L2162,118Z" fill="#845e4e" stroke="#845e4e" stroke-width="1.51"/><path d="M2144,-250L2061,-83L2162,118Z" fill="#6e2f2b" stroke="#6e2f2b" stroke-width="1.51"/><path d="M2128,732L2149,1130L2162,118Z" fill="#7c7c7c" stroke="#7c7c7c" stroke-width="1.51"/><path d="M1939,-258L2061,-83L2144,-250Z" fill="#612b2c" stroke="#612b2c" stroke-width="1.51"/><path d="M1931,1156L2007,1227L2149,1130Z" fill="#454545" stroke="#454545" stroke-width="1.51"/><path d="M2001,983L1931,1156L2149,1130Z" fill="#535353" stroke="#535353" stroke-width="1.51"/><path d="M2007,1227L2121,1233L2149,1130Z" fill="#3a3a3a" stroke="#3a3a3a" stroke-width="1.51"/><path d="M2005,727L1950,868L2072,924Z" fill="#7b7b7b" stroke="#7b7b7b" stroke-width="1.51"/><path d="M2055,602L2005,727L2128,732Z" fill="#848484" stroke="#848484" stroke-width="1.51"/><path d="M2009,302L2106,288L2123,196Z" fill="#8d6d5f" stroke="#8d6d5f" stroke-width="1.51"/><path d="M1939,-258L1970,-84L2061,-83Z" fill="#753534" stroke="#753534" stroke-width="1.51"/><path d="M1991,109L2009,302L2123,196Z" fill="#8f6858" stroke="#8f6858" stroke-width="1.51"/><path d="M1991,109L1923,160L2009,302Z" fill="#986e5e" stroke="#986e5e" stroke-width="1.51"/><path d="M2052,474L2003,501L2055,602Z" fill="#949392" stroke="#949392" stroke-width="1.51"/><path d="M2003,501L1994,563L2055,602Z" fill="#959595" stroke="#959595" stroke-width="1.51"/><path d="M1970,-84L1991,109L2061,-83Z" fill="#82443d" stroke="#82443d" stroke-width="1.51"/><path d="M2072,924L2001,983L2101,963Z" fill="#646464" stroke="#646464" stroke-width="1.51"/><path d="M2009,302L2003,501L2052,474Z" fill="#958a84" stroke="#958a84" stroke-width="1.51"/><path d="M1950,868L2001,983L2072,924Z" fill="#6f6f6f" stroke="#6f6f6f" stroke-width="1.51"/><path d="M1994,563L2005,727L2055,602Z" fill="#8f8f8f" stroke="#8f8f8f" stroke-width="1.51"/><path d="M1970,-84L1865,59L1991,109Z" fill="#8f5349" stroke="#8f5349" stroke-width="1.51"/><path d="M1849,492L2003,501L2009,302Z" fill="#9e938d" stroke="#9e938d" stroke-width="1.51"/><path d="M850,1266L542,1318L1258,1326Z" fill="#8c8783" stroke="#8c8783" stroke-width="1.51"/><path d="M1796,244L1815,334L1923,160Z" fill="#aa8777" stroke="#aa8777" stroke-width="1.51"/><path d="M1939,-258L1893,-251L1970,-84Z" fill="#6f3738" stroke="#6f3738" stroke-width="1.51"/><path d="M1824,1040L1931,1156L2001,983Z" fill="#656565" stroke="#656565" stroke-width="1.51"/><path d="M1994,563L1839,563L2005,727Z" fill="#999999" stroke="#999999" stroke-width="1.51"/><path d="M1839,563L1892,786L2005,727Z" fill="#979797" stroke="#979797" stroke-width="1.51"/><path d="M1892,786L1950,868L2005,727Z" fill="#878787" stroke="#878787" stroke-width="1.51"/><path d="M1923,160L1815,334L2009,302Z" fill="#a28173" stroke="#a28173" stroke-width="1.51"/><path d="M1815,334L1849,492L2009,302Z" fill="#a6958c" stroke="#a6958c" stroke-width="1.51"/><path d="M1931,1156L1867,1277L2007,1227Z" fill="#474747" stroke="#474747" stroke-width="1.51"/><path d="M1950,868L1857,879L2001,983Z" fill="#7a7a7a" stroke="#7a7a7a" stroke-width="1.51"/><path d="M1849,492L1994,563L2003,501Z" fill="#9f9d9c" stroke="#9f9d9c" stroke-width="1.51"/><path d="M1857,879L1824,1040L2001,983Z" fill="#777777" stroke="#777777" stroke-width="1.51"/><path d="M1849,492L1839,563L1994,563Z" fill="#a6a6a6" stroke="#a6a6a6" stroke-width="1.51"/><path d="M1865,59L1923,160L1991,109Z" fill="#986457" stroke="#986457" stroke-width="1.51"/><path d="M1824,1040L1864,1163L1931,1156Z" fill="#606060" stroke="#606060" stroke-width="1.51"/><path d="M1864,1163L1867,1277L1931,1156Z" fill="#505050" stroke="#505050" stroke-width="1.51"/><path d="M1893,-251L1791,-97L1970,-84Z" fill="#82413f" stroke="#82413f" stroke-width="1.51"/><path d="M1791,-97L1865,59L1970,-84Z" fill="#92504a" stroke="#92504a" stroke-width="1.51"/><path d="M1839,563L1734,614L1892,786Z" fill="#a6a6a6" stroke="#a6a6a6" stroke-width="1.51"/><path d="M1892,786L1857,879L1950,868Z" fill="#888888" stroke="#888888" stroke-width="1.51"/><path d="M1734,614L1711,761L1892,786Z" fill="#a5a5a5" stroke="#a5a5a5" stroke-width="1.51"/><path d="M1865,59L1745,97L1923,160Z" fill="#a26d5f" stroke="#a26d5f" stroke-width="1.51"/><path d="M1745,97L1796,244L1923,160Z" fill="#aa7c6c" stroke="#aa7c6c" stroke-width="1.51"/><path d="M1728,931L1824,1040L1857,879Z" fill="#858585" stroke="#858585" stroke-width="1.51"/><path d="M1711,761L1857,879L1892,786Z" fill="#969696" stroke="#969696" stroke-width="1.51"/><path d="M1739,-218L1791,-97L1893,-251Z" fill="#824646" stroke="#824646" stroke-width="1.51"/><path d="M1815,334L1697,519L1849,492Z" fill="#b4aba5" stroke="#b4aba5" stroke-width="1.51"/><path d="M1824,1040L1659,1165L1864,1163Z" fill="#6a6a6a" stroke="#6a6a6a" stroke-width="1.51"/><path d="M1659,1165L1754,1310L1864,1163Z" fill="#5d5d5d" stroke="#5d5d5d" stroke-width="1.51"/><path d="M1791,-97L1695,-30L1865,59Z" fill="#a05e56" stroke="#a05e56" stroke-width="1.51"/><path d="M1695,-30L1745,97L1865,59Z" fill="#a76a5f" stroke="#a76a5f" stroke-width="1.51"/><path d="M1864,1163L1754,1310L1867,1277Z" fill="#4e4e4e" stroke="#4e4e4e" stroke-width="1.51"/><path d="M1711,761L1728,931L1857,879Z" fill="#979797" stroke="#979797" stroke-width="1.51"/><path d="M1707,1017L1659,1165L1824,1040Z" fill="#797979" stroke="#797979" stroke-width="1.51"/><path d="M1697,519L1839,563L1849,492Z" fill="#b3b2b1" stroke="#b3b2b1" stroke-width="1.51"/><path d="M1796,244L1755,290L1815,334Z" fill="#b39588" stroke="#b39588" stroke-width="1.51"/><path d="M1728,931L1707,1017L1824,1040Z" fill="#838383" stroke="#838383" stroke-width="1.51"/><path d="M1697,519L1734,614L1839,563Z" fill="#b6b6b6" stroke="#b6b6b6" stroke-width="1.51"/><path d="M1574,1240L1390,1338L1754,1310Z" fill="#616161" stroke="#616161" stroke-width="1.51"/><path d="M1755,290L1697,519L1815,334Z" fill="#b8a89f" stroke="#b8a89f" stroke-width="1.51"/><path d="M1745,97L1649,237L1796,244Z" fill="#b88c7c" stroke="#b88c7c" stroke-width="1.51"/><path d="M1569,359L1697,519L1755,290Z" fill="#c2b3aa" stroke="#c2b3aa" stroke-width="1.51"/><path d="M1739,-218L1614,-81L1791,-97Z" fill="#9b5653" stroke="#9b5653" stroke-width="1.51"/><path d="M1649,237L1755,290L1796,244Z" fill="#ba9788" stroke="#ba9788" stroke-width="1.51"/><path d="M1024,1267L850,1266L1258,1326Z" fill="#8a8a8a" stroke="#8a8a8a" stroke-width="1.51"/><path d="M1614,-81L1695,-30L1791,-97Z" fill="#a7615a" stroke="#a7615a" stroke-width="1.51"/><path d="M1711,761L1588,838L1728,931Z" fill="#a4a4a4" stroke="#a4a4a4" stroke-width="1.51"/><path d="M1590,721L1711,761L1734,614Z" fill="#b4b4b4" stroke="#b4b4b4" stroke-width="1.51"/><path d="M1612,607L1590,721L1734,614Z" fill="#bcbcbc" stroke="#bcbcbc" stroke-width="1.51"/><path d="M1610,158L1649,237L1745,97Z" fill="#be8e7e" stroke="#be8e7e" stroke-width="1.51"/><path d="M1659,1165L1574,1240L1754,1310Z" fill="#636363" stroke="#636363" stroke-width="1.51"/><path d="M1649,237L1569,359L1755,290Z" fill="#c4a698" stroke="#c4a698" stroke-width="1.51"/><path d="M496,-256L933,-232L1027,-253Z" fill="#bc7b78" stroke="#bc7b78" stroke-width="1.51"/><path d="M1567,-228L1614,-81L1739,-218Z" fill="#9a5a59" stroke="#9a5a59" stroke-width="1.51"/><path d="M1695,-30L1610,158L1745,97Z" fill="#b67b6e" stroke="#b67b6e" stroke-width="1.51"/><path d="M354,1289L-177,1334L542,1318Z" fill="#7b443a" stroke="#7b443a" stroke-width="1.51"/><path d="M1607,1145L1659,1165L1707,1017Z" fill="#7b7b7b" stroke="#7b7b7b" stroke-width="1.51"/><path d="M1697,519L1612,607L1734,614Z" fill="#bfbfbf" stroke="#bfbfbf" stroke-width="1.51"/><path d="M1603,1013L1607,1145L1707,1017Z" fill="#868686" stroke="#868686" stroke-width="1.51"/><path d="M1517,21L1610,158L1695,-30Z" fill="#bc7e71" stroke="#bc7e71" stroke-width="1.51"/><path d="M1603,1013L1707,1017L1728,931Z" fill="#8e8e8e" stroke="#8e8e8e" stroke-width="1.51"/><path d="M1588,838L1603,1013L1728,931Z" fill="#9b9b9b" stroke="#9b9b9b" stroke-width="1.51"/><path d="M1569,359L1548,527L1697,519Z" fill="#cac3be" stroke="#cac3be" stroke-width="1.51"/><path d="M1590,721L1588,838L1711,761Z" fill="#b1b1b1" stroke="#b1b1b1" stroke-width="1.51"/><path d="M1346,-205L1426,-191L1567,-228Z" fill="#a76a6a" stroke="#a76a6a" stroke-width="1.51"/><path d="M1614,-81L1517,21L1695,-30Z" fill="#b57168" stroke="#b57168" stroke-width="1.51"/><path d="M1548,527L1612,607L1697,519Z" fill="#c8c8c8" stroke="#c8c8c8" stroke-width="1.51"/><path d="M1607,1145L1574,1240L1659,1165Z" fill="#727272" stroke="#727272" stroke-width="1.51"/><path d="M1610,158L1569,359L1649,237Z" fill="#c8a494" stroke="#c8a494" stroke-width="1.51"/><path d="M1461,491L1548,527L1569,359Z" fill="#d3cac6" stroke="#d3cac6" stroke-width="1.51"/><path d="M1588,838L1431,922L1603,1013Z" fill="#a6a6a6" stroke="#a6a6a6" stroke-width="1.51"/><path d="M1603,1013L1381,1133L1607,1145Z" fill="#8a8a8a" stroke="#8a8a8a" stroke-width="1.51"/><path d="M1432,334L1569,359L1610,158Z" fill="#d1b2a3" stroke="#d1b2a3" stroke-width="1.51"/><path d="M1380,245L1432,334L1610,158Z" fill="#d7b2a1" stroke="#d7b2a1" stroke-width="1.51"/><path d="M1428,579L1590,721L1612,607Z" fill="#c8c8c8" stroke="#c8c8c8" stroke-width="1.51"/><path d="M1567,-228L1452,-108L1614,-81Z" fill="#ad6764" stroke="#ad6764" stroke-width="1.51"/><path d="M1452,-108L1517,21L1614,-81Z" fill="#bc756d" stroke="#bc756d" stroke-width="1.51"/><path d="M1517,21L1417,53L1610,158Z" fill="#c98c7f" stroke="#c98c7f" stroke-width="1.51"/><path d="M1548,527L1428,579L1612,607Z" fill="#d0d0d0" stroke="#d0d0d0" stroke-width="1.51"/><path d="M1377,989L1381,1133L1603,1013Z" fill="#9c9c9c" stroke="#9c9c9c" stroke-width="1.51"/><path d="M1417,53L1380,245L1610,158Z" fill="#d3a091" stroke="#d3a091" stroke-width="1.51"/><path d="M1408,745L1588,838L1590,721Z" fill="#bcbcbc" stroke="#bcbcbc" stroke-width="1.51"/><path d="M1381,1133L1574,1240L1607,1145Z" fill="#7d7d7d" stroke="#7d7d7d" stroke-width="1.51"/><path d="M1431,922L1377,989L1603,1013Z" fill="#a6a6a6" stroke="#a6a6a6" stroke-width="1.51"/><path d="M1428,579L1408,745L1590,721Z" fill="#cccccc" stroke="#cccccc" stroke-width="1.51"/><path d="M1426,-191L1452,-108L1567,-228Z" fill="#ab6a68" stroke="#ab6a68" stroke-width="1.51"/><path d="M1408,745L1431,922L1588,838Z" fill="#bababa" stroke="#bababa" stroke-width="1.51"/><path d="M1432,334L1461,491L1569,359Z" fill="#d7c8bf" stroke="#d7c8bf" stroke-width="1.51"/><path d="M1381,1133L1390,1338L1574,1240Z" fill="#787878" stroke="#787878" stroke-width="1.51"/><path d="M1461,491L1428,579L1548,527Z" fill="#d8d7d7" stroke="#d8d7d7" stroke-width="1.51"/><path d="M1377,989L1351,1032L1381,1133Z" fill="#a1a1a1" stroke="#a1a1a1" stroke-width="1.51"/><path d="M1452,-108L1417,53L1517,21Z" fill="#c88379" stroke="#c88379" stroke-width="1.51"/><path d="M1279,-70L1299,41L1417,53Z" fill="#d49085" stroke="#d49085" stroke-width="1.51"/><path d="M1408,745L1303,900L1431,922Z" fill="#c0c0c0" stroke="#c0c0c0" stroke-width="1.51"/><path d="M1279,-70L1417,53L1452,-108Z" fill="#cc847b" stroke="#cc847b" stroke-width="1.51"/><path d="M1257,464L1428,579L1461,491Z" fill="#e1dedc" stroke="#e1dedc" stroke-width="1.51"/><path d="M1323,388L1257,464L1461,491Z" fill="#e4d9d4" stroke="#e4d9d4" stroke-width="1.51"/><path d="M1432,334L1323,388L1461,491Z" fill="#dfd0c8" stroke="#dfd0c8" stroke-width="1.51"/><path d="M1381,1133L1338,1126L1390,1338Z" fill="#858585" stroke="#858585" stroke-width="1.51"/><path d="M1299,41L1380,245L1417,53Z" fill="#daa192" stroke="#daa192" stroke-width="1.51"/><path d="M1267,714L1408,745L1428,579Z" fill="#d5d5d5" stroke="#d5d5d5" stroke-width="1.51"/><path d="M1426,-191L1346,-205L1452,-108Z" fill="#b4716f" stroke="#b4716f" stroke-width="1.51"/><path d="M1346,-205L1279,-70L1452,-108Z" fill="#c27874" stroke="#c27874" stroke-width="1.51"/><path d="M1027,-253L1201,-162L1346,-205Z" fill="#ba7c7c" stroke="#ba7c7c" stroke-width="1.51"/><path d="M1299,41L1246,196L1380,245Z" fill="#e1af9e" stroke="#e1af9e" stroke-width="1.51"/><path d="M1338,1126L1258,1326L1390,1338Z" fill="#7c7c7c" stroke="#7c7c7c" stroke-width="1.51"/><path d="M1257,464L1259,577L1428,579Z" fill="#e6e6e6" stroke="#e6e6e6" stroke-width="1.51"/><path d="M1259,577L1267,714L1428,579Z" fill="#dedede" stroke="#dedede" stroke-width="1.51"/><path d="M1380,245L1323,388L1432,334Z" fill="#e1c6ba" stroke="#e1c6ba" stroke-width="1.51"/><path d="M1303,900L1377,989L1431,922Z" fill="#b4b4b4" stroke="#b4b4b4" stroke-width="1.51"/><path d="M1106,1269L1024,1267L1258,1326Z" fill="#858585" stroke="#858585" stroke-width="1.51"/><path d="M1351,1032L1338,1126L1381,1133Z" fill="#999999" stroke="#999999" stroke-width="1.51"/><path d="M1267,714L1303,900L1408,745Z" fill="#cccccc" stroke="#cccccc" stroke-width="1.51"/><path d="M1196,333L1323,388L1380,245Z" fill="#e7cdc0" stroke="#e7cdc0" stroke-width="1.51"/><path d="M1246,196L1196,333L1380,245Z" fill="#e9c4b4" stroke="#e9c4b4" stroke-width="1.51"/><path d="M1303,900L1351,1032L1377,989Z" fill="#b0b0b0" stroke="#b0b0b0" stroke-width="1.51"/><path d="M1115,1149L1258,1326L1338,1126Z" fill="#8f8f8f" stroke="#8f8f8f" stroke-width="1.51"/><path d="M1201,-162L1279,-70L1346,-205Z" fill="#c47d79" stroke="#c47d79" stroke-width="1.51"/><path d="M1189,958L1338,1126L1351,1032Z" fill="#a9a9a9" stroke="#a9a9a9" stroke-width="1.51"/><path d="M1303,900L1189,958L1351,1032Z" fill="#b7b7b7" stroke="#b7b7b7" stroke-width="1.51"/><path d="M1212,915L1189,958L1303,900Z" fill="#c1c1c1" stroke="#c1c1c1" stroke-width="1.51"/><path d="M1267,714L1212,915L1303,900Z" fill="#cbcbcb" stroke="#cbcbcb" stroke-width="1.51"/><path d="M1189,958L1115,1149L1338,1126Z" fill="#a7a7a7" stroke="#a7a7a7" stroke-width="1.51"/><path d="M1115,1149L1106,1269L1258,1326Z" fill="#8a8a8a" stroke="#8a8a8a" stroke-width="1.51"/><path d="M1164,41L1246,196L1299,41Z" fill="#e3a798" stroke="#e3a798" stroke-width="1.51"/><path d="M1196,333L1257,464L1323,388Z" fill="#eadbd2" stroke="#eadbd2" stroke-width="1.51"/><path d="M1106,796L1212,915L1267,714Z" fill="#d4d4d4" stroke="#d4d4d4" stroke-width="1.51"/><path d="M1279,-70L1164,41L1299,41Z" fill="#db958a" stroke="#db958a" stroke-width="1.51"/><path d="M1196,333L1179,450L1257,464Z" fill="#efe1da" stroke="#efe1da" stroke-width="1.51"/><path d="M1257,464L1201,559L1259,577Z" fill="#ececeb" stroke="#ececeb" stroke-width="1.51"/><path d="M1139,235L1196,333L1246,196Z" fill="#efcab9" stroke="#efcab9" stroke-width="1.51"/><path d="M1259,577L1201,559L1267,714Z" fill="#e5e5e5" stroke="#e5e5e5" stroke-width="1.51"/><path d="M1201,-162L1109,-49L1279,-70Z" fill="#d68882" stroke="#d68882" stroke-width="1.51"/><path d="M1109,-49L1164,41L1279,-70Z" fill="#dd948b" stroke="#dd948b" stroke-width="1.51"/><path d="M1179,450L1201,559L1257,464Z" fill="#efe9e6" stroke="#efe9e6" stroke-width="1.51"/><path d="M1201,559L1106,796L1267,714Z" fill="#e1e1e1" stroke="#e1e1e1" stroke-width="1.51"/><path d="M1042,584L1106,796L1201,559Z" fill="#ebebeb" stroke="#ebebeb" stroke-width="1.51"/><path d="M1164,41L1139,235L1246,196Z" fill="#ecb8a7" stroke="#ecb8a7" stroke-width="1.51"/><path d="M1079,77L1139,235L1164,41Z" fill="#edb3a3" stroke="#edb3a3" stroke-width="1.51"/><path d="M982,983L1115,1149L1189,958Z" fill="#b9b9b9" stroke="#b9b9b9" stroke-width="1.51"/><path d="M1106,796L1189,958L1212,915Z" fill="#cbcbcb" stroke="#cbcbcb" stroke-width="1.51"/><path d="M1042,584L1030,780L1106,796Z" fill="#e7e7e7" stroke="#e7e7e7" stroke-width="1.51"/><path d="M1106,796L985,894L1189,958Z" fill="#d1d1d1" stroke="#d1d1d1" stroke-width="1.51"/><path d="M1036,482L1179,450L1196,333Z" fill="#f3e7df" stroke="#f3e7df" stroke-width="1.51"/><path d="M997,293L1036,482L1196,333Z" fill="#f7e4d9" stroke="#f7e4d9" stroke-width="1.51"/><path d="M1179,450L1036,482L1201,559Z" fill="#f4eeec" stroke="#f4eeec" stroke-width="1.51"/><path d="M1036,482L1042,584L1201,559Z" fill="#f6f6f6" stroke="#f6f6f6" stroke-width="1.51"/><path d="M1027,-253L1109,-49L1201,-162Z" fill="#cd8683" stroke="#cd8683" stroke-width="1.51"/><path d="M1139,235L997,293L1196,333Z" fill="#f5d4c6" stroke="#f5d4c6" stroke-width="1.51"/><path d="M1027,-253L980,-110L1109,-49Z" fill="#d78c88" stroke="#d78c88" stroke-width="1.51"/><path d="M1067,1202L1106,1269L1115,1149Z" fill="#969696" stroke="#969696" stroke-width="1.51"/><path d="M985,894L982,983L1189,958Z" fill="#c9c9c9" stroke="#c9c9c9" stroke-width="1.51"/><path d="M1079,77L983,159L1139,235Z" fill="#f3bfae" stroke="#f3bfae" stroke-width="1.51"/><path d="M1109,-49L1079,77L1164,41Z" fill="#e5a195" stroke="#e5a195" stroke-width="1.51"/><path d="M983,159L997,293L1139,235Z" fill="#f9cfbd" stroke="#f9cfbd" stroke-width="1.51"/><path d="M77,1275L-177,1334L354,1289Z" fill="#743631" stroke="#743631" stroke-width="1.51"/><path d="M997,293L932,350L1036,482Z" fill="#fdeae0" stroke="#fdeae0" stroke-width="1.51"/><path d="M1030,780L985,894L1106,796Z" fill="#dcdcdc" stroke="#dcdcdc" stroke-width="1.51"/><path d="M913,23L1079,77L1109,-49Z" fill="#eba599" stroke="#eba599" stroke-width="1.51"/><path d="M980,-110L913,23L1109,-49Z" fill="#e79c93" stroke="#e79c93" stroke-width="1.51"/><path d="M982,983L1067,1202L1115,1149Z" fill="#ababab" stroke="#ababab" stroke-width="1.51"/><path d="M926,620L1030,780L1042,584Z" fill="#f1f1f1" stroke="#f1f1f1" stroke-width="1.51"/><path d="M982,983L896,1188L1067,1202Z" fill="#acacac" stroke="#acacac" stroke-width="1.51"/><path d="M1067,1202L1024,1267L1106,1269Z" fill="#909090" stroke="#909090" stroke-width="1.51"/><path d="M496,-256L731,-171L933,-232Z" fill="#c17770" stroke="#c17770" stroke-width="1.51"/><path d="M868,1050L896,1188L982,983Z" fill="#b8b4b3" stroke="#b8b4b3" stroke-width="1.51"/><path d="M913,23L983,159L1079,77Z" fill="#f3b5a6" stroke="#f3b5a6" stroke-width="1.51"/><path d="M933,-232L980,-110L1027,-253Z" fill="#ca8988" stroke="#ca8988" stroke-width="1.51"/><path d="M896,1188L1024,1267L1067,1202Z" fill="#999999" stroke="#999999" stroke-width="1.51"/><path d="M620,1272L542,1318L850,1266Z" fill="#8e7a6f" stroke="#8e7a6f" stroke-width="1.51"/><path d="M983,159L905,220L997,293Z" fill="#fed3c1" stroke="#fed3c1" stroke-width="1.51"/><path d="M926,620L877,728L1030,780Z" fill="#eeedec" stroke="#eeedec" stroke-width="1.51"/><path d="M905,854L985,894L1030,780Z" fill="#dedede" stroke="#dedede" stroke-width="1.51"/><path d="M932,350L859,421L1036,482Z" fill="#fff0e8" stroke="#fff0e8" stroke-width="1.51"/><path d="M1036,482L926,620L1042,584Z" fill="#fafafa" stroke="#fafafa" stroke-width="1.51"/><path d="M859,421L926,620L1036,482Z" fill="#fffaf7" stroke="#fffaf7" stroke-width="1.51"/><path d="M877,728L905,854L1030,780Z" fill="#e5e4e3" stroke="#e5e4e3" stroke-width="1.51"/><path d="M896,1188L850,1266L1024,1267Z" fill="#989593" stroke="#989593" stroke-width="1.51"/><path d="M862,-101L913,23L980,-110Z" fill="#e7998f" stroke="#e7998f" stroke-width="1.51"/><path d="M905,220L932,350L997,293Z" fill="#feddcd" stroke="#feddcd" stroke-width="1.51"/><path d="M933,-232L862,-101L980,-110Z" fill="#d88d88" stroke="#d88d88" stroke-width="1.51"/><path d="M905,854L868,1050L982,983Z" fill="#ccc9c7" stroke="#ccc9c7" stroke-width="1.51"/><path d="M913,23L905,220L983,159Z" fill="#f8bfae" stroke="#f8bfae" stroke-width="1.51"/><path d="M905,854L982,983L985,894Z" fill="#d4d4d4" stroke="#d4d4d4" stroke-width="1.51"/><path d="M795,1241L620,1272L850,1266Z" fill="#93867e" stroke="#93867e" stroke-width="1.51"/><path d="M778,442L756,586L859,421Z" fill="#ffece2" stroke="#ffece2" stroke-width="1.51"/><path d="M719,899L868,1050L905,854Z" fill="#d0c7c2" stroke="#d0c7c2" stroke-width="1.51"/><path d="M797,209L905,220L913,23Z" fill="#f8bea9" stroke="#f8bea9" stroke-width="1.51"/><path d="M743,28L797,209L913,23Z" fill="#f3ac98" stroke="#f3ac98" stroke-width="1.51"/><path d="M859,421L756,586L926,620Z" fill="#fff6f2" stroke="#fff6f2" stroke-width="1.51"/><path d="M736,364L859,421L932,350Z" fill="#fee4d5" stroke="#fee4d5" stroke-width="1.51"/><path d="M797,209L736,364L932,350Z" fill="#fdd7c4" stroke="#fdd7c4" stroke-width="1.51"/><path d="M905,220L797,209L932,350Z" fill="#fdd3bf" stroke="#fdd3bf" stroke-width="1.51"/><path d="M731,-171L862,-101L933,-232Z" fill="#d1857f" stroke="#d1857f" stroke-width="1.51"/><path d="M800,724L877,728L926,620Z" fill="#f1e9e6" stroke="#f1e9e6" stroke-width="1.51"/><path d="M756,586L800,724L926,620Z" fill="#f5ebe6" stroke="#f5ebe6" stroke-width="1.51"/><path d="M740,-56L743,28L862,-101Z" fill="#e69283" stroke="#e69283" stroke-width="1.51"/><path d="M868,1050L759,1187L896,1188Z" fill="#aaa29d" stroke="#aaa29d" stroke-width="1.51"/><path d="M877,728L800,724L905,854Z" fill="#e7e0dc" stroke="#e7e0dc" stroke-width="1.51"/><path d="M862,-101L743,28L913,23Z" fill="#ea9b8c" stroke="#ea9b8c" stroke-width="1.51"/><path d="M719,899L710,1022L868,1050Z" fill="#c7b9b2" stroke="#c7b9b2" stroke-width="1.51"/><path d="M800,724L719,899L905,854Z" fill="#e0d5cf" stroke="#e0d5cf" stroke-width="1.51"/><path d="M795,1241L850,1266L896,1188Z" fill="#99918d" stroke="#99918d" stroke-width="1.51"/><path d="M759,1187L795,1241L896,1188Z" fill="#9e948f" stroke="#9e948f" stroke-width="1.51"/><path d="M710,1022L759,1187L868,1050Z" fill="#b5a9a2" stroke="#b5a9a2" stroke-width="1.51"/><path d="M736,364L778,442L859,421Z" fill="#fee4d5" stroke="#fee4d5" stroke-width="1.51"/><path d="M731,-171L740,-56L862,-101Z" fill="#df877b" stroke="#df877b" stroke-width="1.51"/><path d="M675,578L657,764L756,586Z" fill="#f5e1d6" stroke="#f5e1d6" stroke-width="1.51"/><path d="M710,1022L645,1157L759,1187Z" fill="#ae9c92" stroke="#ae9c92" stroke-width="1.51"/><path d="M675,578L756,586L778,442Z" fill="#ffeee4" stroke="#ffeee4" stroke-width="1.51"/><path d="M743,28L573,204L797,209Z" fill="#f5b096" stroke="#f5b096" stroke-width="1.51"/><path d="M573,204L736,364L797,209Z" fill="#fbc5ab" stroke="#fbc5ab" stroke-width="1.51"/><path d="M756,586L657,764L800,724Z" fill="#f0e0d7" stroke="#f0e0d7" stroke-width="1.51"/><path d="M657,764L719,899L800,724Z" fill="#e4d3ca" stroke="#e4d3ca" stroke-width="1.51"/><path d="M759,1187L620,1272L795,1241Z" fill="#988980" stroke="#988980" stroke-width="1.51"/><path d="M660,423L675,578L778,442Z" fill="#fee5d6" stroke="#fee5d6" stroke-width="1.51"/><path d="M496,-256L585,-154L731,-171Z" fill="#c46d61" stroke="#c46d61" stroke-width="1.51"/><path d="M616,17L573,204L743,28Z" fill="#ee9c83" stroke="#ee9c83" stroke-width="1.51"/><path d="M736,364L660,423L778,442Z" fill="#fedfcd" stroke="#fedfcd" stroke-width="1.51"/><path d="M573,204L579,384L736,364Z" fill="#fbc7ae" stroke="#fbc7ae" stroke-width="1.51"/><path d="M731,-171L639,-89L740,-56Z" fill="#de8173" stroke="#de8173" stroke-width="1.51"/><path d="M645,1157L620,1272L759,1187Z" fill="#9d897f" stroke="#9d897f" stroke-width="1.51"/><path d="M638,907L710,1022L719,899Z" fill="#cebbb0" stroke="#cebbb0" stroke-width="1.51"/><path d="M657,764L638,907L719,899Z" fill="#ddc7bb" stroke="#ddc7bb" stroke-width="1.51"/><path d="M639,-89L616,17L740,-56Z" fill="#e38775" stroke="#e38775" stroke-width="1.51"/><path d="M740,-56L616,17L743,28Z" fill="#e7927e" stroke="#e7927e" stroke-width="1.51"/><path d="M579,384L660,423L736,364Z" fill="#fdd6c0" stroke="#fdd6c0" stroke-width="1.51"/><path d="M585,-154L639,-89L731,-171Z" fill="#d4786a" stroke="#d4786a" stroke-width="1.51"/><path d="M573,1007L645,1157L710,1022Z" fill="#b9a195" stroke="#b9a195" stroke-width="1.51"/><path d="M638,907L573,1007L710,1022Z" fill="#c8b0a4" stroke="#c8b0a4" stroke-width="1.51"/><path d="M660,423L526,512L675,578Z" fill="#fedecf" stroke="#fedecf" stroke-width="1.51"/><path d="M538,575L657,764L675,578Z" fill="#f5d9cc" stroke="#f5d9cc" stroke-width="1.51"/><path d="M508,165L573,204L616,17Z" fill="#f09d80" stroke="#f09d80" stroke-width="1.51"/><path d="M463,794L638,907L657,764Z" fill="#e0c1b3" stroke="#e0c1b3" stroke-width="1.51"/><path d="M526,512L538,575L675,578Z" fill="#fddccd" stroke="#fddccd" stroke-width="1.51"/><path d="M175,1261L77,1275L354,1289Z" fill="#80473d" stroke="#80473d" stroke-width="1.51"/><path d="M526,14L508,165L616,17Z" fill="#e98e73" stroke="#e98e73" stroke-width="1.51"/><path d="M538,-33L616,17L639,-89Z" fill="#e1816d" stroke="#e1816d" stroke-width="1.51"/><path d="M573,1007L488,1167L645,1157Z" fill="#af9082" stroke="#af9082" stroke-width="1.51"/><path d="M538,575L463,794L657,764Z" fill="#eecabb" stroke="#eecabb" stroke-width="1.51"/><path d="M579,384L526,512L660,423Z" fill="#fcd3bf" stroke="#fcd3bf" stroke-width="1.51"/><path d="M463,794L476,911L638,907Z" fill="#dab4a4" stroke="#dab4a4" stroke-width="1.51"/><path d="M488,1167L620,1272L645,1157Z" fill="#9d8174" stroke="#9d8174" stroke-width="1.51"/><path d="M512,988L573,1007L638,907Z" fill="#caaa9c" stroke="#caaa9c" stroke-width="1.51"/><path d="M476,911L512,988L638,907Z" fill="#cfac9c" stroke="#cfac9c" stroke-width="1.51"/><path d="M585,-154L538,-33L639,-89Z" fill="#db7665" stroke="#db7665" stroke-width="1.51"/><path d="M573,204L434,321L579,384Z" fill="#f9b99c" stroke="#f9b99c" stroke-width="1.51"/><path d="M488,1167L542,1318L620,1272Z" fill="#937466" stroke="#937466" stroke-width="1.51"/><path d="M538,-33L526,14L616,17Z" fill="#e3836c" stroke="#e3836c" stroke-width="1.51"/><path d="M378,737L463,794L538,575Z" fill="#edc1af" stroke="#edc1af" stroke-width="1.51"/><path d="M512,988L488,1167L573,1007Z" fill="#ba9687" stroke="#ba9687" stroke-width="1.51"/><path d="M508,165L434,321L573,204Z" fill="#f6ab89" stroke="#f6ab89" stroke-width="1.51"/><path d="M404,-196L538,-33L585,-154Z" fill="#d26958" stroke="#d26958" stroke-width="1.51"/><path d="M496,-256L404,-196L585,-154Z" fill="#be6053" stroke="#be6053" stroke-width="1.51"/><path d="M434,321L526,512L579,384Z" fill="#fbc7ae" stroke="#fbc7ae" stroke-width="1.51"/><path d="M196,-257L404,-196L496,-256Z" fill="#ae4b44" stroke="#ae4b44" stroke-width="1.51"/><path d="M379,1166L488,1167L512,988Z" fill="#ae8574" stroke="#ae8574" stroke-width="1.51"/><path d="M434,321L318,476L526,512Z" fill="#f9c0a8" stroke="#f9c0a8" stroke-width="1.51"/><path d="M384,177L508,165L526,14Z" fill="#ec9172" stroke="#ec9172" stroke-width="1.51"/><path d="M303,552L378,737L538,575Z" fill="#f2c1af" stroke="#f2c1af" stroke-width="1.51"/><path d="M404,-196L303,-63L538,-33Z" fill="#d2604f" stroke="#d2604f" stroke-width="1.51"/><path d="M488,1167L354,1289L542,1318Z" fill="#906959" stroke="#906959" stroke-width="1.51"/><path d="M384,177L434,321L508,165Z" fill="#f2a27f" stroke="#f2a27f" stroke-width="1.51"/><path d="M325,1012L379,1166L512,988Z" fill="#b68878" stroke="#b68878" stroke-width="1.51"/><path d="M526,512L303,552L538,575Z" fill="#fccfbc" stroke="#fccfbc" stroke-width="1.51"/><path d="M303,-63L526,14L538,-33Z" fill="#dc725b" stroke="#dc725b" stroke-width="1.51"/><path d="M318,476L303,552L526,512Z" fill="#f9c2b0" stroke="#f9c2b0" stroke-width="1.51"/><path d="M307,33L384,177L526,14Z" fill="#e37e63" stroke="#e37e63" stroke-width="1.51"/><path d="M303,-63L307,33L526,14Z" fill="#da6b56" stroke="#da6b56" stroke-width="1.51"/><path d="M379,1166L354,1289L488,1167Z" fill="#986c5d" stroke="#986c5d" stroke-width="1.51"/><path d="M476,911L394,894L512,988Z" fill="#cfa492" stroke="#cfa492" stroke-width="1.51"/><path d="M394,894L325,1012L512,988Z" fill="#c79787" stroke="#c79787" stroke-width="1.51"/><path d="M463,794L394,894L476,911Z" fill="#d8ac9a" stroke="#d8ac9a" stroke-width="1.51"/><path d="M362,315L318,476L434,321Z" fill="#f5b197" stroke="#f5b197" stroke-width="1.51"/><path d="M384,177L362,315L434,321Z" fill="#f2a384" stroke="#f2a384" stroke-width="1.51"/><path d="M378,737L394,894L463,794Z" fill="#deae9d" stroke="#deae9d" stroke-width="1.51"/><path d="M242,430L318,476L362,315Z" fill="#f2ac95" stroke="#f2ac95" stroke-width="1.51"/><path d="M303,552L256,768L378,737Z" fill="#e8ae9f" stroke="#e8ae9f" stroke-width="1.51"/><path d="M325,1012L236,1120L379,1166Z" fill="#a97465" stroke="#a97465" stroke-width="1.51"/><path d="M239,282L362,315L384,177Z" fill="#ee987b" stroke="#ee987b" stroke-width="1.51"/><path d="M378,737L256,768L394,894Z" fill="#dca596" stroke="#dca596" stroke-width="1.51"/><path d="M256,768L243,853L394,894Z" fill="#d59b8c" stroke="#d59b8c" stroke-width="1.51"/><path d="M196,-257L303,-63L404,-196Z" fill="#ba4740" stroke="#ba4740" stroke-width="1.51"/><path d="M243,853L325,1012L394,894Z" fill="#ca9284" stroke="#ca9284" stroke-width="1.51"/><path d="M236,1120L354,1289L379,1166Z" fill="#976457" stroke="#976457" stroke-width="1.51"/><path d="M307,33L199,250L384,177Z" fill="#e47f64" stroke="#e47f64" stroke-width="1.51"/><path d="M199,250L239,282L384,177Z" fill="#ea8d6f" stroke="#ea8d6f" stroke-width="1.51"/><path d="M215,564L256,768L303,552Z" fill="#ebac9e" stroke="#ebac9e" stroke-width="1.51"/><path d="M236,1120L175,1261L354,1289Z" fill="#8d564a" stroke="#8d564a" stroke-width="1.51"/><path d="M239,282L242,430L362,315Z" fill="#ef9f86" stroke="#ef9f86" stroke-width="1.51"/><path d="M196,-257L273,-52L303,-63Z" fill="#c2443e" stroke="#c2443e" stroke-width="1.51"/><path d="M171,24L199,250L307,33Z" fill="#db6a54" stroke="#db6a54" stroke-width="1.51"/><path d="M243,853L212,1019L325,1012Z" fill="#c08477" stroke="#c08477" stroke-width="1.51"/><path d="M303,-63L273,-52L307,33Z" fill="#d15b4a" stroke="#d15b4a" stroke-width="1.51"/><path d="M212,1019L236,1120L325,1012Z" fill="#b07569" stroke="#b07569" stroke-width="1.51"/><path d="M196,-257L116,-212L273,-52Z" fill="#b23737" stroke="#b23737" stroke-width="1.51"/><path d="M215,564L303,552L318,476Z" fill="#f4b6a6" stroke="#f4b6a6" stroke-width="1.51"/><path d="M242,430L215,564L318,476Z" fill="#f3ae9d" stroke="#f3ae9d" stroke-width="1.51"/><path d="M273,-52L171,24L307,33Z" fill="#d25949" stroke="#d25949" stroke-width="1.51"/><path d="M71,583L114,785L215,564Z" fill="#e39b91" stroke="#e39b91" stroke-width="1.51"/><path d="M215,564L114,785L256,768Z" fill="#e09d90" stroke="#e09d90" stroke-width="1.51"/><path d="M75,-17L171,24L273,-52Z" fill="#cb4c41" stroke="#cb4c41" stroke-width="1.51"/><path d="M116,-212L75,-17L273,-52Z" fill="#c03938" stroke="#c03938" stroke-width="1.51"/><path d="M199,250L66,284L239,282Z" fill="#e4856d" stroke="#e4856d" stroke-width="1.51"/><path d="M239,282L66,284L242,430Z" fill="#e8917a" stroke="#e8917a" stroke-width="1.51"/><path d="M72,484L215,564L242,430Z" fill="#eea496" stroke="#eea496" stroke-width="1.51"/><path d="M51,836L212,1019L243,853Z" fill="#c58377" stroke="#c58377" stroke-width="1.51"/><path d="M114,785L243,853L256,768Z" fill="#d59386" stroke="#d59386" stroke-width="1.51"/><path d="M171,24L51,258L199,250Z" fill="#dc705a" stroke="#dc705a" stroke-width="1.51"/><path d="M212,1019L114,1092L236,1120Z" fill="#a7685e" stroke="#a7685e" stroke-width="1.51"/><path d="M114,1092L175,1261L236,1120Z" fill="#95584e" stroke="#95584e" stroke-width="1.51"/><path d="M66,284L72,484L242,430Z" fill="#e89583" stroke="#e89583" stroke-width="1.51"/><path d="M114,785L51,836L243,853Z" fill="#ce897e" stroke="#ce897e" stroke-width="1.51"/><path d="M-28,-249L116,-212L196,-257Z" fill="#9b232d" stroke="#9b232d" stroke-width="1.51"/><path d="M38,22L51,258L171,24Z" fill="#d0594a" stroke="#d0594a" stroke-width="1.51"/><path d="M41,1061L114,1092L212,1019Z" fill="#a6645c" stroke="#a6645c" stroke-width="1.51"/><path d="M51,836L41,1061L212,1019Z" fill="#b57068" stroke="#b57068" stroke-width="1.51"/><path d="M72,484L71,583L215,564Z" fill="#eba398" stroke="#eba398" stroke-width="1.51"/><path d="M-24,907L41,1061L51,836Z" fill="#b66d67" stroke="#b66d67" stroke-width="1.51"/><path d="M114,1092L77,1275L175,1261Z" fill="#884a42" stroke="#884a42" stroke-width="1.51"/><path d="M51,258L66,284L199,250Z" fill="#e07d67" stroke="#e07d67" stroke-width="1.51"/><path d="M71,583L-6,661L114,785Z" fill="#db9088" stroke="#db9088" stroke-width="1.51"/><path d="M75,-17L38,22L171,24Z" fill="#c7463e" stroke="#c7463e" stroke-width="1.51"/><path d="M-54,52L-31,243L38,22Z" fill="#c94e43" stroke="#c94e43" stroke-width="1.51"/><path d="M38,22L-31,243L51,258Z" fill="#d36150" stroke="#d36150" stroke-width="1.51"/><path d="M66,284L-27,467L72,484Z" fill="#e28b7d" stroke="#e28b7d" stroke-width="1.51"/><path d="M-28,-249L-44,-15L75,-17Z" fill="#b5202d" stroke="#b5202d" stroke-width="1.51"/><path d="M-70,1239L-177,1334L77,1275Z" fill="#6b2c2c" stroke="#6b2c2c" stroke-width="1.51"/><path d="M-6,661L51,836L114,785Z" fill="#d1877f" stroke="#d1877f" stroke-width="1.51"/><path d="M-21,1131L77,1275L114,1092Z" fill="#8d4a45" stroke="#8d4a45" stroke-width="1.51"/><path d="M41,1061L-21,1131L114,1092Z" fill="#9b5650" stroke="#9b5650" stroke-width="1.51"/><path d="M-28,-249L75,-17L116,-212Z" fill="#aa222d" stroke="#aa222d" stroke-width="1.51"/><path d="M-6,661L-66,772L51,836Z" fill="#ce807b" stroke="#ce807b" stroke-width="1.51"/><path d="M-155,-117L-44,-15L-28,-249Z" fill="#a31329" stroke="#a31329" stroke-width="1.51"/><path d="M-24,907L-65,1033L41,1061Z" fill="#a95f5b" stroke="#a95f5b" stroke-width="1.51"/><path d="M-82,312L-27,467L66,284Z" fill="#dc7e70" stroke="#dc7e70" stroke-width="1.51"/><path d="M-27,467L71,583L72,484Z" fill="#e6978e" stroke="#e6978e" stroke-width="1.51"/><path d="M-44,-15L38,22L75,-17Z" fill="#c13a38" stroke="#c13a38" stroke-width="1.51"/><path d="M-21,1131L-70,1239L77,1275Z" fill="#7f3b38" stroke="#7f3b38" stroke-width="1.51"/><path d="M-31,243L-82,312L66,284Z" fill="#d87161" stroke="#d87161" stroke-width="1.51"/><path d="M-27,467L-6,661L71,583Z" fill="#e2948d" stroke="#e2948d" stroke-width="1.51"/><path d="M51,258L-31,243L66,284Z" fill="#db7360" stroke="#db7360" stroke-width="1.51"/><path d="M-66,772L-24,907L51,836Z" fill="#c37771" stroke="#c37771" stroke-width="1.51"/><path d="M-27,467L-133,640L-6,661Z" fill="#d78c88" stroke="#d78c88" stroke-width="1.51"/><path d="M-65,1033L-21,1131L41,1061Z" fill="#9a534f" stroke="#9a534f" stroke-width="1.51"/><path d="M-44,-15L-54,52L38,22Z" fill="#bf3938" stroke="#bf3938" stroke-width="1.51"/><path d="M-54,52L-157,231L-31,243Z" fill="#c5594c" stroke="#c5594c" stroke-width="1.51"/><path d="M-133,640L-66,772L-6,661Z" fill="#cb837f" stroke="#cb837f" stroke-width="1.51"/><path d="M-185,42L-157,231L-54,52Z" fill="#b64840" stroke="#b64840" stroke-width="1.51"/><path d="M-196,-248L-155,-117L-28,-249Z" fill="#890925" stroke="#890925" stroke-width="1.51"/><path d="M-82,312L-201,447L-27,467Z" fill="#cf8076" stroke="#cf8076" stroke-width="1.51"/><path d="M-201,447L-133,640L-27,467Z" fill="#d08a87" stroke="#d08a87" stroke-width="1.51"/><path d="M-197,848L-65,1033L-24,907Z" fill="#a76562" stroke="#a76562" stroke-width="1.51"/><path d="M-66,772L-197,848L-24,907Z" fill="#b4716e" stroke="#b4716e" stroke-width="1.51"/><path d="M-65,1033L-171,1119L-21,1131Z" fill="#8b4b49" stroke="#8b4b49" stroke-width="1.51"/><path d="M-171,1119L-70,1239L-21,1131Z" fill="#7d3f3e" stroke="#7d3f3e" stroke-width="1.51"/><path d="M-197,848L-173,1059L-65,1033Z" fill="#965a5a" stroke="#965a5a" stroke-width="1.51"/><path d="M-135,303L-201,447L-82,312Z" fill="#c7766c" stroke="#c7766c" stroke-width="1.51"/><path d="M-157,231L-82,312L-31,243Z" fill="#cb695b" stroke="#cb695b" stroke-width="1.51"/><path d="M-157,231L-135,303L-82,312Z" fill="#c66b5e" stroke="#c66b5e" stroke-width="1.51"/><path d="M-173,1059L-171,1119L-65,1033Z" fill="#884c4c" stroke="#884c4c" stroke-width="1.51"/><path d="M-185,42L-54,52L-44,-15Z" fill="#b43737" stroke="#b43737" stroke-width="1.51"/><path d="M-155,-117L-185,42L-44,-15Z" fill="#a82930" stroke="#a82930" stroke-width="1.51"/><path d="M-133,640L-244,690L-66,772Z" fill="#bc7c7b" stroke="#bc7c7b" stroke-width="1.51"/><path d="M-244,690L-197,848L-66,772Z" fill="#b17473" stroke="#b17473" stroke-width="1.51"/><path d="M-171,1119L-177,1334L-70,1239Z" fill="#683132" stroke="#683132" stroke-width="1.51"/><path d="M-201,447L-244,690L-133,640Z" fill="#bf8383" stroke="#bf8383" stroke-width="1.51"/><path d="M-157,231L-201,447L-135,303Z" fill="#c17066" stroke="#c17066" stroke-width="1.51"/><path d="M-196,-248L-185,42L-155,-117Z" fill="#980f27" stroke="#980f27" stroke-width="1.51"/><path d="M-185,42L-201,447L-157,231Z" fill="#ba6054" stroke="#ba6054" stroke-width="1.51"/><path d="M-173,1059L-244,690L-171,1119Z" fill="#925a5c" stroke="#925a5c" stroke-width="1.51"/><path d="M-244,690L-177,1334L-171,1119Z" fill="#824c4e" stroke="#824c4e" stroke-width="1.51"/><path d="M-197,848L-244,690L-173,1059Z" fill="#9f6768" stroke="#9f6768" stroke-width="1.51"/><path d="M-196,-248L-244,690L-185,42Z" fill="#af4f46" stroke="#af4f46" stroke-width="1.51"/><path d="M-244,690L-201,447L-185,42Z" fill="#bc7670" stroke="#bc7670" stroke-width="1.51"/></svg>